<?xml version="1.0" encoding="UTF-8"?>
<svg width="218px" height="62px" viewBox="0 0 218 62" version="1.1" xmlns="http://www.w3.org/2000/svg" xmlns:xlink="http://www.w3.org/1999/xlink">
    <title>Artboard</title>
    <g id="Artboard" stroke="none" stroke-width="1" fill="none" fill-rule="evenodd">
        <g id="Go-to" transform="translate(-0.110000, 0.358000)" fill="#CFCFCF" fill-rule="nonzero">
            <path d="M18.63,34.506 C19.602,34.506 20.583,34.452 21.573,34.344 C22.563,34.236 23.508,34.083 24.408,33.885 C25.308,33.687 26.136,33.453 26.892,33.183 C27.648,32.913 28.278,32.634 28.782,32.346 C29.646,31.842 30.276,31.32 30.672,30.78 C31.068,30.24 31.266,29.412 31.266,28.296 L31.266,28.296 L31.266,17.28 C31.266,16.2 30.969,15.363 30.375,14.769 C29.781,14.175 28.944,13.878 27.864,13.878 L27.864,13.878 L18.738,13.878 C17.802,13.878 17.037,14.166 16.443,14.742 C15.849,15.318 15.552,16.254 15.552,17.55 C15.552,18.27 15.651,18.954 15.849,19.602 C16.047,20.25 16.254,20.772 16.47,21.168 L16.47,21.168 L22.248,21.168 L22.248,26.244 C21.924,26.424 21.456,26.586 20.844,26.73 C20.232,26.874 19.53,26.946 18.738,26.946 C17.514,26.946 16.362,26.757 15.282,26.379 C14.202,26.001 13.248,25.425 12.42,24.651 C11.592,23.877 10.935,22.887 10.449,21.681 C9.963,20.475 9.72,19.044 9.72,17.388 C9.72,14.328 10.611,11.934 12.393,10.206 C14.175,8.478 16.578,7.614 19.602,7.614 C21.294,7.614 22.815,7.875 24.165,8.397 C25.515,8.919 26.64,9.45 27.54,9.99 C28.152,9.594 28.692,9.054 29.16,8.37 C29.628,7.686 29.862,6.876 29.862,5.94 C29.862,4.176 28.863,2.745 26.865,1.647 C24.867,0.549 22.158,3.55271368e-15 18.738,3.55271368e-15 C16.362,3.55271368e-15 14.049,0.36 11.799,1.08 C9.549,1.8 7.551,2.889 5.805,4.347 C4.059,5.805 2.655,7.632 1.593,9.828 C0.531,12.024 -1.70530257e-13,14.598 -1.70530257e-13,17.55 C-1.70530257e-13,20.358 0.486,22.824 1.458,24.948 C2.43,27.072 3.753,28.845 5.427,30.267 C7.101,31.689 9.072,32.751 11.34,33.453 C13.608,34.155 16.038,34.506 18.63,34.506 Z M49.788,34.506 C51.912,34.506 53.838,34.2 55.566,33.588 C57.294,32.976 58.779,32.076 60.021,30.888 C61.263,29.7 62.226,28.233 62.91,26.487 C63.594,24.741 63.936,22.752 63.936,20.52 C63.936,18.432 63.594,16.524 62.91,14.796 C62.226,13.068 61.263,11.601 60.021,10.395 C58.779,9.189 57.294,8.253 55.566,7.587 C53.838,6.921 51.912,6.588 49.788,6.588 C47.664,6.588 45.738,6.912 44.01,7.56 C42.282,8.208 40.797,9.135 39.555,10.341 C38.313,11.547 37.35,13.014 36.666,14.742 C35.982,16.47 35.64,18.396 35.64,20.52 C35.64,22.68 35.982,24.624 36.666,26.352 C37.35,28.08 38.313,29.547 39.555,30.753 C40.797,31.959 42.282,32.886 44.01,33.534 C45.738,34.182 47.664,34.506 49.788,34.506 Z M49.842,27.324 C48.33,27.324 47.151,26.739 46.305,25.569 C45.459,24.399 45.036,22.716 45.036,20.52 C45.036,18.36 45.45,16.695 46.278,15.525 C47.106,14.355 48.276,13.77 49.788,13.77 C51.3,13.77 52.47,14.355 53.298,15.525 C54.126,16.695 54.54,18.36 54.54,20.52 C54.54,22.68 54.135,24.354 53.325,25.542 C52.515,26.73 51.354,27.324 49.842,27.324 Z" id="Go"></path>
            <path d="M89.208,34.452 C91.8,34.452 93.609,34.02 94.635,33.156 C95.661,32.292 96.174,31.176 96.174,29.808 C96.174,29.124 96.057,28.539 95.823,28.053 C95.589,27.567 95.31,27.126 94.986,26.73 C94.554,26.874 94.05,26.991 93.474,27.081 C92.898,27.171 92.34,27.216 91.8,27.216 C90.72,27.216 89.883,27.018 89.289,26.622 C88.695,26.226 88.398,25.56 88.398,24.624 L88.398,24.624 L88.398,16.47 L93.312,16.47 C94.248,16.47 94.995,16.191 95.553,15.633 C96.111,15.075 96.39,14.166 96.39,12.906 C96.39,12.186 96.291,11.529 96.093,10.935 C95.895,10.341 95.688,9.846 95.472,9.45 L95.472,9.45 L88.398,9.45 L88.398,5.994 C88.398,4.194 87.957,3.015 87.075,2.457 C86.193,1.899 84.96,1.62 83.376,1.62 C82.548,1.62 81.765,1.683 81.027,1.809 C80.289,1.935 79.722,2.052 79.326,2.16 L79.326,2.16 L79.326,25.272 C79.326,28.512 80.181,30.852 81.891,32.292 C83.601,33.732 86.04,34.452 89.208,34.452 Z M113.508,34.506 C115.632,34.506 117.558,34.2 119.286,33.588 C121.014,32.976 122.499,32.076 123.741,30.888 C124.983,29.7 125.946,28.233 126.63,26.487 C127.314,24.741 127.656,22.752 127.656,20.52 C127.656,18.432 127.314,16.524 126.63,14.796 C125.946,13.068 124.983,11.601 123.741,10.395 C122.499,9.189 121.014,8.253 119.286,7.587 C117.558,6.921 115.632,6.588 113.508,6.588 C111.384,6.588 109.458,6.912 107.73,7.56 C106.002,8.208 104.517,9.135 103.275,10.341 C102.033,11.547 101.07,13.014 100.386,14.742 C99.702,16.47 99.36,18.396 99.36,20.52 C99.36,22.68 99.702,24.624 100.386,26.352 C101.07,28.08 102.033,29.547 103.275,30.753 C104.517,31.959 106.002,32.886 107.73,33.534 C109.458,34.182 111.384,34.506 113.508,34.506 Z M113.562,27.324 C112.05,27.324 110.871,26.739 110.025,25.569 C109.179,24.399 108.756,22.716 108.756,20.52 C108.756,18.36 109.17,16.695 109.998,15.525 C110.826,14.355 111.996,13.77 113.508,13.77 C115.02,13.77 116.19,14.355 117.018,15.525 C117.846,16.695 118.26,18.36 118.26,20.52 C118.26,22.68 117.855,24.354 117.045,25.542 C116.235,26.73 115.074,27.324 113.562,27.324 Z" id="to"></path>
        </g>
        <path d="M193.25,-1.68333333 C193.25,-4.48583333 195.707812,-6.75 198.75,-6.75 C201.792188,-6.75 204.25,-4.48583333 204.25,-1.68333333 L204.25,31.25 L193.25,31.25 L193.25,-1.68333333 Z" id="Path" fill="#85D8F2" fill-rule="nonzero" transform="translate(198.750000, 12.250000) rotate(90.000000) translate(-198.750000, -12.250000) "></path>
        <path d="M175.25,37.5 C175.25,35.1492188 177.484375,33.25 180.25,33.25 C183.015625,33.25 185.25,35.1492188 185.25,37.5 L185.25,46 C185.25,48.3507812 183.015625,50.25 180.25,50.25 C177.484375,50.25 175.25,48.3507812 175.25,46 L175.25,37.5 Z" id="Path" fill="#85D8F2" fill-rule="nonzero" transform="translate(180.250000, 41.750000) rotate(90.000000) translate(-180.250000, -41.750000) "></path>
        <path d="M186.25,19.25 C189.015625,19.25 191.25,21.2928571 191.25,23.8214286 L191.25,30.6785714 C191.25,33.2071429 189.015625,35.25 186.25,35.25 C183.484375,35.25 181.25,33.2071429 181.25,30.6785714 L181.25,23.8214286 C181.25,21.2928571 183.484375,19.25 186.25,19.25 Z" id="Path" fill="#85D8F2" fill-rule="nonzero" transform="translate(186.250000, 27.250000) rotate(90.000000) translate(-186.250000, -27.250000) "></path>
        <path d="M160.333333,21.0833333 L160.333333,20.9958333 C161.679688,21.7833333 163.240885,22.25 164.916667,22.25 C166.807292,22.25 168.554688,21.6666667 170.015625,20.675 C171.261719,24.30625 174.670573,26.9166667 178.666667,26.9166667 C180.342448,26.9166667 181.903646,26.4645833 183.25,25.6625 L183.25,26.9166667 C183.25,39.8083333 172.994792,50.25 160.333333,50.25 L151.496094,50.25 C145.423177,50.25 139.59375,47.7854167 135.296875,43.4104167 L133.621094,41.71875 C130.183594,38.21875 128.25,33.4645833 128.25,28.5208333 L128.25,24.5833333 C128.25,19.4354167 132.360677,15.25 137.416667,15.25 L150.020833,15.25 C153.186198,15.25 155.75,17.8604167 155.75,21.0833333 C155.75,24.30625 153.186198,26.9166667 150.020833,26.9166667 L142,26.9166667 C140.739583,26.9166667 139.708333,27.9666667 139.708333,29.25 C139.708333,30.5333333 140.739583,31.5833333 142,31.5833333 L150.020833,31.5833333 C155.721354,31.5833333 160.333333,26.8875 160.333333,21.0833333 Z" id="Path" fill="#85D8F2" fill-rule="nonzero" transform="translate(155.750000, 32.750000) rotate(90.000000) translate(-155.750000, -32.750000) "></path>
        <path d="M39.554,61.17 C40.0753333,61.17 40.6023333,61.136 41.135,61.068 C41.6676667,61 42.0586667,60.932 42.308,60.864 L42.308,60.864 L42.308,45.156 L46.082,45.156 C46.7166667,45.156 47.2323333,44.9633333 47.629,44.578 C48.0256667,44.1926667 48.224,43.558 48.224,42.674 C48.224,42.198 48.156,41.7446667 48.02,41.314 C47.884,40.8833333 47.7366667,40.5433333 47.578,40.294 L47.578,40.294 L32.754,40.294 C32.1193333,40.294 31.6036667,40.4866667 31.207,40.872 C30.8103333,41.2573333 30.612,41.892 30.612,42.776 C30.612,43.252 30.68,43.7053333 30.816,44.136 C30.952,44.5666667 31.0993333,44.9066667 31.258,45.156 L31.258,45.156 L36.358,45.156 L36.358,58.348 C36.358,58.9373333 36.426,59.4133333 36.562,59.776 C36.698,60.1386667 36.902,60.422 37.174,60.626 C37.446,60.83 37.7803333,60.9716667 38.177,61.051 C38.5736667,61.1303333 39.0326667,61.17 39.554,61.17 Z M66.788,61.17 C67.3093333,61.17 67.8363333,61.136 68.369,61.068 C68.9016667,61 69.2926667,60.932 69.542,60.864 L69.542,60.864 L69.542,42.912 C69.542,42.3226667 69.474,41.8466667 69.338,41.484 C69.202,41.1213333 68.998,40.838 68.726,40.634 C68.454,40.43 68.1196667,40.2883333 67.723,40.209 C67.3263333,40.1296667 66.8673333,40.09 66.346,40.09 C65.8473333,40.09 65.326,40.1296667 64.782,40.209 C64.238,40.2883333 63.8413333,40.3506667 63.592,40.396 L63.592,40.396 L63.592,48.352 L57.064,48.352 L57.064,42.912 C57.064,42.3226667 56.996,41.8466667 56.86,41.484 C56.724,41.1213333 56.52,40.838 56.248,40.634 C55.976,40.43 55.6416667,40.2883333 55.245,40.209 C54.8483333,40.1296667 54.3893333,40.09 53.868,40.09 C53.3693333,40.09 52.848,40.1296667 52.304,40.209 C51.76,40.2883333 51.3633333,40.3506667 51.114,40.396 L51.114,40.396 L51.114,58.348 C51.114,58.9373333 51.182,59.4133333 51.318,59.776 C51.454,60.1386667 51.658,60.422 51.93,60.626 C52.202,60.83 52.5363333,60.9716667 52.933,61.051 C53.3296667,61.1303333 53.7886667,61.17 54.31,61.17 C54.8313333,61.17 55.3583333,61.136 55.891,61.068 C56.4236667,61 56.8146667,60.932 57.064,60.864 L57.064,60.864 L57.064,53.044 L63.592,53.044 L63.592,58.348 C63.592,58.9373333 63.66,59.4133333 63.796,59.776 C63.932,60.1386667 64.136,60.422 64.408,60.626 C64.68,60.83 65.0143333,60.9716667 65.411,61.051 C65.8076667,61.1303333 66.2666667,61.17 66.788,61.17 Z M87.052,61.102 C87.664,61.102 88.157,60.915 88.531,60.541 C88.905,60.167 89.092,59.5493333 89.092,58.688 C89.092,58.2346667 89.0296667,57.804 88.905,57.396 C88.7803333,56.988 88.6386667,56.6593333 88.48,56.41 L88.48,56.41 L79.742,56.41 L79.742,52.84 L85.998,52.84 C86.61,52.84 87.0973333,52.6586667 87.46,52.296 C87.8226667,51.9333333 88.004,51.3213333 88.004,50.46 C88.004,50.0066667 87.9416667,49.5816667 87.817,49.185 C87.6923333,48.7883333 87.5506667,48.4653333 87.392,48.216 L87.392,48.216 L79.742,48.216 L79.742,45.054 L86.916,45.054 C87.528,45.054 88.021,44.8726667 88.395,44.51 C88.769,44.1473333 88.956,43.5353333 88.956,42.674 C88.956,42.2206667 88.8936667,41.79 88.769,41.382 C88.6443333,40.974 88.5026667,40.6453333 88.344,40.396 L88.344,40.396 L77.124,40.396 C76.1493333,40.396 75.3786667,40.6793333 74.812,41.246 C74.2453333,41.8126667 73.962,42.5833333 73.962,43.558 L73.962,43.558 L73.962,57.94 C73.962,58.9146667 74.2453333,59.6853333 74.812,60.252 C75.3786667,60.8186667 76.1493333,61.102 77.124,61.102 L77.124,61.102 L87.052,61.102 Z M99.292,61.544 C102.238667,61.544 104.471333,60.949 105.99,59.759 C107.508667,58.569 108.268,57.0106667 108.268,55.084 C108.268,53.2706667 107.695667,51.837 106.551,50.783 C105.406333,49.729 103.768667,48.862 101.638,48.182 L101.638,48.182 L99.836,47.604 C99.2466667,47.4226667 98.8046667,47.2243333 98.51,47.009 C98.2153333,46.7936667 98.068,46.516 98.068,46.176 C98.068,45.7453333 98.306,45.3883333 98.782,45.105 C99.258,44.8216667 100.006,44.68 101.026,44.68 C102.023333,44.68 102.941333,44.799 103.78,45.037 C104.618667,45.275 105.287333,45.5526667 105.786,45.87 C106.171333,45.5753333 106.5,45.2183333 106.772,44.799 C107.044,44.3796667 107.18,43.8753333 107.18,43.286 C107.18,42.6966667 107.01,42.181 106.67,41.739 C106.33,41.297 105.859667,40.9343333 105.259,40.651 C104.658333,40.3676667 103.938667,40.158 103.1,40.022 C102.261333,39.886 101.354667,39.818 100.38,39.818 C97.7053333,39.818 95.6256667,40.396 94.141,41.552 C92.6563333,42.708 91.914,44.2493333 91.914,46.176 C91.914,47.1733333 92.0783333,48.0176667 92.407,48.709 C92.7356667,49.4003333 93.1946667,49.9953333 93.784,50.494 C94.3733333,50.9926667 95.076,51.4176667 95.892,51.769 C96.708,52.1203333 97.6146667,52.466 98.612,52.806 L98.612,52.806 L100.04,53.282 C100.697333,53.5086667 101.207333,53.741 101.57,53.979 C101.932667,54.217 102.114,54.5626667 102.114,55.016 C102.114,55.4693333 101.887333,55.866 101.434,56.206 C100.980667,56.546 100.198667,56.716 99.088,56.716 C98,56.716 96.997,56.5346667 96.079,56.172 C95.161,55.8093333 94.3846667,55.3786667 93.75,54.88 C93.2966667,55.1293333 92.8773333,55.4863333 92.492,55.951 C92.1066667,56.4156667 91.914,56.9766667 91.914,57.634 C91.914,58.2686667 92.101,58.8296667 92.475,59.317 C92.849,59.8043333 93.3703333,60.2123333 94.039,60.541 C94.7076667,60.8696667 95.4896667,61.119 96.385,61.289 C97.2803333,61.459 98.2493333,61.544 99.292,61.544 Z M124.588,61.102 C125.2,61.102 125.693,60.915 126.067,60.541 C126.441,60.167 126.628,59.5493333 126.628,58.688 C126.628,58.2346667 126.565667,57.804 126.441,57.396 C126.316333,56.988 126.174667,56.6593333 126.016,56.41 L126.016,56.41 L117.278,56.41 L117.278,52.84 L123.534,52.84 C124.146,52.84 124.633333,52.6586667 124.996,52.296 C125.358667,51.9333333 125.54,51.3213333 125.54,50.46 C125.54,50.0066667 125.477667,49.5816667 125.353,49.185 C125.228333,48.7883333 125.086667,48.4653333 124.928,48.216 L124.928,48.216 L117.278,48.216 L117.278,45.054 L124.452,45.054 C125.064,45.054 125.557,44.8726667 125.931,44.51 C126.305,44.1473333 126.492,43.5353333 126.492,42.674 C126.492,42.2206667 126.429667,41.79 126.305,41.382 C126.180333,40.974 126.038667,40.6453333 125.88,40.396 L125.88,40.396 L114.66,40.396 C113.685333,40.396 112.914667,40.6793333 112.348,41.246 C111.781333,41.8126667 111.498,42.5833333 111.498,43.558 L111.498,43.558 L111.498,57.94 C111.498,58.9146667 111.781333,59.6853333 112.348,60.252 C112.914667,60.8186667 113.685333,61.102 114.66,61.102 L114.66,61.102 L124.588,61.102 Z" id="THESE" fill="#CFCFCF" fill-rule="nonzero"></path>
        <path d="M170.25,51.5 C170.25,49.1492188 172.484375,47.25 175.25,47.25 C178.015625,47.25 180.25,49.1492188 180.25,51.5 L180.25,60 C180.25,62.3507812 178.015625,64.25 175.25,64.25 C172.484375,64.25 170.25,62.3507812 170.25,60 L170.25,51.5 Z" id="Path" fill="#85D8F2" fill-rule="nonzero" transform="translate(175.250000, 55.750000) rotate(90.000000) translate(-175.250000, -55.750000) "></path>
    </g>
</svg>