<?xml version="1.0" standalone="no"?>
<!DOCTYPE svg PUBLIC "-//W3C//DTD SVG 20010904//EN"
 "http://www.w3.org/TR/2001/REC-SVG-20010904/DTD/svg10.dtd">
<svg version="1.0" xmlns="http://www.w3.org/2000/svg"
 width="512.000000pt" height="512.000000pt" viewBox="0 0 512.000000 512.000000"
 preserveAspectRatio="xMidYMid meet">
<metadata>
Created by potrace 1.14, written by Peter Selinger 2001-2017
</metadata>
<g transform="translate(0.000000,512.000000) scale(0.100000,-0.100000)"
fill="#000000" stroke="none">
<path d="M1327 4334 c-1 -1 -31 -5 -67 -8 -55 -6 -105 -16 -200 -40 -132 -34
-337 -148 -449 -250 -112 -101 -267 -268 -324 -348 -65 -93 -167 -280 -167
-308 0 -9 -4 -20 -8 -25 -11 -12 -59 -167 -67 -215 -25 -146 -28 -209 -28
-550 -1 -395 3 -470 28 -597 88 -428 390 -821 777 -1011 198 -96 340 -138 538
-158 75 -7 220 -11 225 -6 2 2 -4 18 -14 35 -35 62 -54 142 -57 232 -6 176 53
324 179 446 42 41 153 112 193 123 21 6 21 8 -16 81 -21 42 -43 105 -50 141
-23 121 3 302 55 381 9 13 14 23 13 24 -2 0 -32 3 -68 6 -85 7 -205 45 -283
90 -82 48 -195 163 -239 243 -77 140 -82 166 -86 531 -4 370 -3 378 67 425 73
48 174 21 213 -57 15 -29 17 -77 20 -349 l3 -315 33 -67 c103 -210 363 -275
554 -139 31 22 72 64 91 94 62 94 64 109 61 627 -1 256 -5 478 -8 494 -38 166
-152 319 -297 396 -119 63 -172 73 -407 75 -116 1 -213 1 -215 -1z"/>
<path d="M2671 3891 c-1 -269 2 -350 12 -353 6 -2 494 -3 1082 -2 958 1 1075
3 1113 17 141 53 227 184 224 343 -3 146 -89 275 -217 324 -48 18 -91 19
-1132 19 l-1082 1 0 -349z"/>
<path d="M2770 3226 c-159 -64 -233 -250 -169 -421 29 -78 105 -155 175 -179
42 -14 94 -16 315 -16 285 0 305 3 376 53 87 61 131 157 129 278 -1 94 -36
169 -106 232 -78 70 -106 75 -405 76 -247 0 -264 -1 -315 -23z"/>
<path d="M2332 2294 c-113 -56 -181 -186 -168 -324 10 -114 71 -215 161 -263
38 -21 53 -22 373 -24 l334 -2 47 24 c100 50 164 161 165 285 0 41 -5 94 -12
117 -28 94 -115 184 -198 203 -21 5 -176 10 -345 10 l-305 0 -52 -26z"/>
<path d="M2030 1407 c-61 -22 -117 -78 -155 -153 -27 -53 -30 -69 -30 -149 0
-77 4 -99 28 -149 15 -32 45 -76 67 -97 74 -72 75 -72 445 -73 320 0 331 0
371 21 141 75 207 253 151 411 -36 103 -106 174 -192 197 -16 5 -167 9 -334 9
-267 1 -309 -1 -351 -17z"/>
</g>
</svg>
